Error creating video: FFmpeg error: ffmpeg version 6.1.1 Copyright (c) 2000-2023 the FFmpeg developers built with gcc 13.2.0 (GCC) configuration: --disable-static --prefix=/nix/store/eeeeeeeeeeeeeeeeeeeeeeeeeeeeeeee-ffmpeg-6.1.1 --target_os=linux --arch=x86_64 --pkg-config=pkg-config --enable-gpl --enable-version3 --disable-nonfree --disable-static --enable-shared --enable-pic --disable-thumb --disable-small --enable-runtime-cpudetect --disable-gray --enable-swscale-alpha --enable-hardcoded-tables --enable-safe-bitstream-reader --enable-pthreads --disable-w32threads --disable-os2threads --enable-network --enable-pixelutils --datadir=/nix/store/71hcrwn1g6ncki859v14jq18i8fx84sk-ffmpeg-6.1.1-data/share/ffmpeg --enable-ffmpeg --enable-ffplay --enable-ffprobe --bindir=/nix/store/eeeeeeeeeeeeeeeeeeeeeeeeeeeeeeee-ffmpeg-6.1.1-bin/bin --enable-avcodec --enable-avdevice --enable-avfilter --enable-avformat --enable-avutil --enable-postproc --enable-swresample --enable-swscale --libdir=/nix/store/eeeeeeeeeeeeeeeeeeeeeeeeeeeeeeee-ffmpeg-6.1.1-lib/lib --incdir=/nix/store/eeeeeeeeeeeeeeeeeeeeeeeeeeeeeeee-ffmpeg-6.1.1-dev/include --enable-doc --enable-htmlpages --enable-manpages --mandir=/nix/store/eeeeeeeeeeeeeeeeeeeeeeeeeeeeeeee-ffmpeg-6.1.1-man/share/man --enable-podpages --enable-txtpages --docdir=/nix/store/eeeeeeeeeeeeeeeeeeeeeeeeeeeeeeee-ffmpeg-6.1.1-doc/share/doc/ffmpeg --enable-alsa --disable-libaom --disable-appkit --disable-libaribcaption --enable-libass --disable-audiotoolbox --disable-avfoundation --disable-avisynth --disable-libbluray --disable-libbs2b --enable-bzlib --disable-libcaca --disable-libcelt --disable-chromaprint --disable-libcodec2 --disable-coreimage --disable-cuda --disable-cuda-llvm --enable-cuvid --enable-libdav1d --disable-libdc1394 --enable-libdrm --disable-libfdk-aac --enable-ffnvcodec --disable-libflite --enable-fontconfig --enable-libfontconfig --enable-libfreetype --disable-frei0r --disable-libfribidi --disable-libgme --enable-gnutls --disable-libgsm --enable-libharfbuzz --enable-iconv --disable-libjack --disable-libjxl --disable-ladspa --enable-lzma --disable-libmfx --disable-libmodplug --enable-libmp3lame --disable-libmysofa --enable-nvdec --enable-nvenc --disable-openal --disable-opencl --disable-libopencore-amrnb --disable-libopencore-amrwb --disable-opengl --disable-libopenh264 --disable-libopenjpeg --disable-libopenmpt --enable-libopus --disable-libplacebo --enable-libpulse --disable-librav1e --disable-librtmp --disable-libsmbclient --enable-sdl2 --disable-libshaderc --enable-libsoxr --enable-libspeex --enable-libsrt --enable-libssh --disable-librsvg --enable-libsvtav1 --disable-libtensorflow --enable-libtheora --enable-libv4l2 --enable-v4l2-m2m --enable-vaapi --enable-vdpau --disable-libvpl --disable-videotoolbox --disable-libvidstab --disable-libvmaf --disable-libvo-amrwbenc --enable-libvorbis --enable-libvpx --enable-vulkan --disable-libwebp --enable-libx264 --enable-libx265 --disable-libxavs --disable-libxcb --disable-libxcb-shape --disable-libxcb-shm --disable-libxcb-xfixes --disable-xlib --disable-libxml2 --enable-libxvid --enable-libzimg --enable-zlib --disable-libzmq --disable-debug --enable-optimizations --disable-extra-warnings --disable-stripping libavutil 58. 29.100 / 58. 29.100 libavcodec 60. 31.102 / 60. 31.102 libavformat 60. 16.100 / 60. 16.100 libavdevice 60. 3.100 / 60. 3.100 libavfilter 9. 12.100 / 9. 12.100 libswscale 7. 5.100 / 7. 5.100 libswresample 4. 12.100 / 4. 12.100 libpostproc 57. 3.100 / 57. 3.100 Input #0, image2, from '/tmp/tmpzo7n6_ay/frame_%04d.png': Duration: 00:00:00.17, start: 0.000000, bitrate: N/A Stream #0:0: Video: png, rgba(pc, gbr/unknown/unknown), 985x554 [SAR 3937:3937 DAR 985:554], 30 fps, 30 tbr, 30 tbn [aist#1:0/pcm_f32le @ 0x1298dc0] Guessed Channel Layout: stereo Input #1, wav, from '/home/runner/workspace/uploads/audio/83a301df-7df3-4340-93fe-c425bc323cb8.wav': Metadata: comment : Modified by FL Studio 20 encoder : FL Studio 20 Duration: 00:00:00.18, bitrate: 2834 kb/s Stream #1:0: Audio: pcm_f32le ([3][0][0][0] / 0x0003), 44100 Hz, 2 channels, flt, 2822 kb/s Stream mapping: Stream #0:0 -> #0:0 (png (native) -> h264 (libx264)) Stream #1:0 -> #0:1 (pcm_f32le (native) -> aac (native)) Press [q] to stop, [?] for help [libx264 @ 0x12abf40] width not divisible by 2 (985x554) [vost#0:0/libx264 @ 0x12abb80] Error while opening encoder - maybe incorrect parameters such as bit_rate, rate, width or height. Error while filtering: Generic error in an external library [out#0/mp4 @ 0x128fac0] Nothing was written into output file, because at least one of its streams received no packets. frame= 0 fps=0.0 q=0.0 Lsize= 0kB time=N/A bitrate=N/A speed=N/A Conversion failed!